<svg xmlns="http://www.w3.org/2000/svg" width="20" height="20" viewBox="0 0 20 20" fill="none">
  <g clip-path="url(#clip0_11463_10658)">
    <mask id="mask0_11463_10658" style="mask-type:luminance" maskUnits="userSpaceOnUse" x="0" y="0" width="20" height="20">
      <path d="M20 0H0V20H20V0Z" fill="white"/>
    </mask>
    <g mask="url(#mask0_11463_10658)">
      <path d="M1.80762 6.07981V13.9198C1.80762 14.4238 2.07162 14.8798 2.51162 15.1358L9.30362 19.0558C9.73562 19.3038 10.2716 19.3038 10.7036 19.0558L17.4956 15.1358C17.9276 14.8878 18.1996 14.4238 18.1996 13.9198V6.07981C18.1996 5.57581 17.9356 5.11981 17.4956 4.86381L10.7036 0.943812C10.2716 0.695813 9.73562 0.695813 9.30362 0.943812L2.51162 4.86381C2.07962 5.11181 1.81562 5.57581 1.81562 6.07981H1.80762Z" fill="#213147"/>
      <path d="M11.4801 11.5201L10.5121 14.1761C10.4881 14.2481 10.4881 14.3281 10.5121 14.4081L12.1761 18.9761L14.1041 17.8641L11.7921 11.5201C11.7361 11.3761 11.5361 11.3761 11.4801 11.5201Z" fill="#12AAFF"/>
      <path d="M13.424 7.05575C13.368 6.91175 13.168 6.91175 13.112 7.05575L12.144 9.71175C12.12 9.78375 12.12 9.86375 12.144 9.94375L14.872 17.4238L16.8 16.3118L13.424 7.06375V7.05575Z" fill="#12AAFF"/>
      <path d="M9.99974 1.24C10.0477 1.24 10.0957 1.256 10.1357 1.28L17.4797 5.52C17.5677 5.568 17.6157 5.664 17.6157 5.76V14.24C17.6157 14.336 17.5597 14.432 17.4797 14.48L10.1357 18.72C10.0957 18.744 10.0477 18.76 9.99974 18.76C9.95174 18.76 9.90374 18.744 9.86374 18.72L2.51974 14.48C2.43174 14.432 2.38374 14.336 2.38374 14.24V5.752C2.38374 5.656 2.43974 5.56 2.51974 5.512L9.86374 1.272C9.90374 1.248 9.95174 1.232 9.99974 1.232V1.24ZM9.99974 0C9.73574 0 9.47974 0.064 9.23974 0.2L1.89574 4.44C1.42374 4.712 1.13574 5.208 1.13574 5.752V14.232C1.13574 14.776 1.42374 15.272 1.89574 15.544L9.23974 19.784C9.47174 19.92 9.73574 19.984 9.99974 19.984C10.2637 19.984 10.5197 19.92 10.7597 19.784L18.1037 15.544C18.5757 15.272 18.8637 14.776 18.8637 14.232V5.752C18.8637 5.208 18.5757 4.712 18.1037 4.44L10.7517 0.2C10.5197 0.064 10.2557 0 9.99174 0H9.99974Z" fill="#9DCCED"/>
      <path d="M5.13574 17.4322L5.81574 15.5762L7.17574 16.7042L5.90374 17.8722L5.13574 17.4322Z" fill="#213147"/>
      <path d="M9.37601 5.15204H7.51201C7.37601 5.15204 7.24801 5.24004 7.20001 5.36804L3.20801 16.312L5.13601 17.424L9.53601 5.36804C9.57601 5.25604 9.49601 5.14404 9.38401 5.14404L9.37601 5.15204Z" fill="white"/>
      <path d="M12.6403 5.15204H10.7763C10.6403 5.15204 10.5123 5.24004 10.4643 5.36804L5.9043 17.864L7.8323 18.976L12.7923 5.36804C12.8323 5.25604 12.7523 5.14404 12.6403 5.14404V5.15204Z" fill="white"/>
    </g>
  </g>
  <defs>
    <clipPath id="clip0_11463_10658">
      <rect width="20" height="20" fill="white"/>
    </clipPath>
  </defs>
</svg>