<svg xmlns="http://www.w3.org/2000/svg" width="62" height="25" viewBox="0 0 62 25" fill="none">
  <path d="M59.4943 19.3894L56.392 14.7574L53.2658 19.3894H50.7601L55.1511 12.9149L50.8794 6.6451H53.3851L56.392 11.1235L59.375 6.6451H61.8807L57.6329 12.9661L62 19.3894H59.4943Z" fill="#ABABB9"/>
  <path d="M36.7461 16.9327V9.10184L39.0371 6.6451H43.6666L45.4326 8.30851V1.11746H47.6519V19.3894H45.528V17.1886L43.4757 19.3894H39.0371L36.7461 16.9327ZM43.1178 17.3165L45.4326 14.8086V10.6885L43.3564 8.71797H40.0632L38.9655 9.89515V16.1393L40.0632 17.3165H43.1178Z" fill="#ABABB9"/>
  <path d="M2.14775 8.69238H0V6.6451H2.14775V3.90687L4.34323 1.5525H8.08986V3.57419H5.29778L4.36709 4.57223V6.6451H8.08986V8.69238H4.36709V19.3894H2.14775V8.69238Z" fill="#ABABB9"/>
  <path d="M25.485 19.398L22.3827 14.766L19.2565 19.398H16.7508L21.1418 12.9235L16.8702 6.65367H19.3759L22.3827 11.1321L25.3657 6.65367H27.8714L23.6236 12.9746L27.9907 19.398H25.485Z" fill="white"/>
  <path d="M10.7345 0H15.9663V2.17042H12.9066V22.8296H15.9663V25H10.7345V0Z" fill="white"/>
  <path d="M28.8156 25V22.8296H31.8519V2.17042H28.8156V0H34.0473V25H28.8156Z" fill="white"/>
</svg>